<?xml version="1.0" standalone="no"?>
<!DOCTYPE svg PUBLIC "-//W3C//DTD SVG 20010904//EN"
 "http://www.w3.org/TR/2001/REC-SVG-20010904/DTD/svg10.dtd">
<svg version="1.0" xmlns="http://www.w3.org/2000/svg"
 width="300.000000pt" height="300.000000pt" viewBox="0 0 300.000000 300.000000"
 preserveAspectRatio="xMidYMid meet">
<metadata>
Created by potrace 1.14, written by Peter Selinger 2001-2017
</metadata>
<g transform="translate(0.000000,300.000000) scale(0.100000,-0.100000)"
fill="#000000" stroke="none">
<path d="M1325 2899 c-577 -80 -1049 -497 -1190 -1053 -199 -783 291 -1566
1085 -1737 151 -33 419 -33 570 0 566 122 993 556 1107 1127 24 123 24 395 0
518 -114 569 -544 1008 -1102 1126 -116 24 -361 34 -470 19z m1063 -648 c68
-31 95 -69 100 -140 7 -99 3 -103 -629 -599 -310 -244 -575 -452 -589 -463
-25 -18 -19 -18 357 -19 l381 0 6 38 c28 197 41 228 106 266 30 18 52 21 145
21 220 0 251 -50 243 -385 -5 -206 -15 -241 -75 -268 -35 -16 -108 -17 -918
-17 l-880 0 -53 24 c-112 51 -133 157 -53 269 18 23 256 214 602 482 316 243
581 449 589 456 12 12 -41 14 -343 14 l-357 0 0 -58 c0 -127 -49 -208 -142
-233 -70 -18 -205 -8 -256 21 -73 41 -82 73 -82 301 0 196 8 256 36 280 44 36
88 38 934 36 l825 -2 53 -24z"/>
</g>
</svg>
